<!-- icon666.com - MILLIONS OF FREE VECTOR ICONS --><svg version="1.1" id="Capa_1" xmlns="http://www.w3.org/2000/svg" xmlns:xlink="http://www.w3.org/1999/xlink" x="0px" y="0px" viewBox="0 0 512.004 512.004" style="enable-background:new 0 0 512.004 512.004;" xml:space="preserve"><path style="fill:#303C42;" d="M507.253,23.139l-32-21.332c-2.583-1.719-5.771-2.26-8.75-1.406 c-2.979,0.823-5.458,2.896-6.792,5.688l-190.563,399.25H53.336c-4.042,0-7.729,2.281-9.542,5.896L1.128,496.565 c-1.656,3.302-1.479,7.229,0.469,10.375s5.375,5.063,9.073,5.063h222.385c37.542,0,71.844-22.083,87.396-56.27L511.045,36.431 C513.211,31.67,511.607,26.035,507.253,23.139z"></path><polygon style="fill:#78909C;" points="206.743,426.67 174.743,490.669 91.93,490.669 123.93,426.67 "></polygon><polygon style="fill:#546E7A;" points="59.93,426.67 100.076,426.67 68.076,490.669 27.93,490.669 "></polygon><path style="fill:#455A64;" d="M301.034,446.899c-12.094,26.594-38.781,43.77-67.979,43.77h-34.458l32-63.999h45.281 c4.115,0,7.854-2.365,9.625-6.072l188.156-394.22l14.208,9.479L301.034,446.899z"></path><polygon style="opacity:0.1;enable-background:new ;" points="91.93,490.669 174.743,490.669 187.935,464.283 105.123,464.283 "></polygon><polygon style="opacity:0.1;enable-background:new ;" points="27.93,490.669 68.076,490.669 81.269,464.283 41.123,464.283 "></polygon><path style="opacity:0.1;enable-background:new ;" d="M473.659,26.378l-1.474,3.089L294.441,420.523 c-12.094,26.583-38.781,43.76-67.979,43.76h-14.672l-13.193,26.385h34.458c29.198,0,55.885-17.176,67.979-43.77L487.868,35.858 L473.659,26.378z"></path><linearGradient id="SVGID_1_" gradientUnits="userSpaceOnUse" x1="-40.3256" y1="636.7607" x2="-28.7667" y2="631.3672" gradientTransform="matrix(21.3333 0 0 -21.3333 996.2913 13791.7139)"><stop offset="0" style="stop-color:#FFFFFF;stop-opacity:0.2"></stop><stop offset="1" style="stop-color:#FFFFFF;stop-opacity:0"></stop></linearGradient><path style="fill:url(#SVGID_1_);" d="M507.253,23.139l-32-21.332c-2.583-1.719-5.771-2.26-8.75-1.406 c-2.979,0.823-5.458,2.896-6.792,5.688l-190.563,399.25H53.336c-4.042,0-7.729,2.281-9.542,5.896L1.128,496.565 c-1.656,3.302-1.479,7.229,0.469,10.375s5.375,5.063,9.073,5.063h222.385c37.542,0,71.844-22.083,87.396-56.27L511.045,36.431 C513.211,31.67,511.607,26.035,507.253,23.139z"></path></svg>