<!-- icon666.com - MILLIONS OF FREE VECTOR ICONS --><svg id="Layer_1" enable-background="new 0 0 512 512" viewBox="0 0 512 512" xmlns="http://www.w3.org/2000/svg"><g><g clip-rule="evenodd" fill-rule="evenodd"><path d="m276 126h161c8.2 0 15 6.8 15 15v229.998 40.002c0 13.807 11.193 25 25 25s25-11.193 25-25v-270c0-35.8-29.2-65-65-65h-362c-35.8 0-65 29.2-65 65v270c0 13.807 11.193 25 25 25s25-11.193 25-25v-40.001-229.999c0-8.2 6.8-15 15-15h161z" fill="#ff7b79"></path><path d="m276 370.998v-244.998h-40v244.998h-176v40.002h392v-40.002z" fill="#f3f0f1"></path></g><g><path d="m437 66h-252c-5.523 0-10 4.477-10 10s4.477 10 10 10h252c30.327 0 55 24.673 55 55v270c0 8.271-6.729 15-15 15s-15-6.729-15-15v-270c0-13.785-11.215-25-25-25h-362c-13.785 0-25 11.215-25 25v270c0 8.271-6.729 15-15 15s-15-6.729-15-15v-270c0-30.327 24.673-55 55-55h20c5.523 0 10-4.477 10-10s-4.477-10-10-10h-20c-41.355 0-75 33.645-75 75v270c0 19.299 15.701 35 35 35 15.824 0 29.223-10.56 33.537-25h374.927c4.314 14.44 17.712 25 33.537 25 19.299 0 35-15.701 35-35v-270c-.001-41.355-33.646-75-75.001-75zm-211 172.5h-38.667v-41.25h38.667zm0 20v41.25h-38.667v-41.25zm-58.667 41.25h-38.667v-41.25h38.667zm-58.666 0h-38.667v-41.25h38.667zm-38.667 20h38.667v41.249h-38.667zm58.667 0h38.667v41.249h-38.667zm58.666 0h38.667v41.249h-38.667zm38.667-183.749v41.25h-38.667v-41.251zm-58.667 41.249h-38.667v-41.25h38.667zm0 20v41.25h-38.667v-41.25zm-58.666 41.25h-38.667v-41.25h38.667zm-38.667 142.499h166c5.523 0 10-4.477 10-10v-234.998h20v234.998c0 5.523 4.477 10 10 10h166v20.001h-372zm313.333-81.249h-38.667v-41.25h38.667zm20-41.25h38.667v41.25h-38.667zm-78.666 41.25h-38.667v-41.25h38.667zm-38.667-61.25v-41.25h38.667v41.25zm0 81.25h38.667v41.249h-38.667zm58.667 0h38.667v41.249h-38.667zm58.666 0h38.667v41.249h-38.667zm38.667-81.25h-38.667v-41.25h38.667zm-58.667 0h-38.667v-41.25h38.667zm-38.666-61.25v-41.25h38.667v41.25zm-20 0h-38.667v-41.25h38.667zm117.333-36.25v36.25h-38.667v-41.25h33.667c2.664 0 5 2.337 5 5zm-367-5h33.667v41.25h-38.667v-36.25c0-2.663 2.336-5 5-5z"></path><path d="m140.004 86c5.523 0 10-4.477 10-10s-4.477-10-10-10h-.007c-5.523 0-9.997 4.477-9.997 10s4.481 10 10.004 10z"></path></g></g></svg> 