<!-- icon666.com - MILLIONS OF FREE VECTOR ICONS --><svg viewBox="-34 0 512 512.00053" xmlns="http://www.w3.org/2000/svg"><path d="m429.199219 421.152344-70.738281-103.421875c7.894531-.757813 14.988281-5.152344 19.179687-11.886719l36.261719-58.574219c14.753906-23.835937 7.59375-55.109375-16.0625-70.152343l-116.265625-73.933594v-.785156s17.066406-8.53125 17.066406-42.664063-26.667969-51.199219-76.800781-51.199219c-50.132813 0-76.800782 17.066406-76.800782 51.199219s17.070313 42.664063 17.070313 42.664063v.785156l-89.457031 56.875c-9.53125-23.523438-17.605469-43.570313-22.945313-56.949219-3.078125-7.773437-11.757812-11.710937-19.632812-8.914063-7.878907 2.796876-12.128907 11.324219-9.621094 19.296876l20.609375 66.972656c1.230469-.957032 2.5-1.871094 3.839844-2.722656-23.027344 14.667968-29.828125 45.214843-15.199219 68.265624l8.84375 13.902344c4.160156 6.488282 10.828125 10.964844 18.414063 12.355469 4.726562 13.113281 12.117187 33.132813 21.078124 55.960937l-63.558593 92.925782c-5.109375 7.472656-7.046875 16.671875-5.375 25.566406 1.667969 8.898438 6.804687 16.769531 14.277343 21.878906l42.296876 28.894532c15.558593 10.640624 36.792968 6.65625 47.4375-8.898438l22.671874-33.152344c15.917969 28.289063 31.351563 48.023438 43.386719 48.023438h140.578125c6.921875-.003906 13.644532-2.324219 19.097656-6.59375 11.621094 8.46875 27.3125 8.71875 39.199219.621094l42.265625-28.902344c15.550782-10.648438 19.527344-31.882813 8.882813-47.4375zm-139.722657-160.648438 14.890626-55.839844c1.402343-5.253906 5.222656-9.527343 10.289062-11.503906 5.066406-1.976562 10.773438-1.417968 15.363281 1.503906l26.835938 17.066407c7.484375 4.75 9.765625 14.632812 5.121093 22.183593l-27.820312 44.957032c-.375.605468-.605469 1.261718-.921875 1.882812l-4.964844-7.253906c-8.578125-12.484375-24.382812-17.796875-38.757812-13.019531-1.339844.441406-2.65625.964843-3.953125 1.535156-1.644532.722656-3.226563 1.582031-4.734375 2.558594 2.675781-1.757813 5.589843-3.128907 8.652343-4.070313zm51.832032 166.164063c-1.679688-1.085938-3.4375-2.035157-5.265625-2.84375 1.828125.808593 3.585937 1.757812 5.265625 2.84375zm-7.433594-3.703125c-1.390625-.574219-2.808594-1.128906-4.367188-1.648438 1.558594.519532 2.976563 1.082032 4.367188 1.648438zm15.488281 58.171875c-.386719 1.457031-.886719 2.882812-1.492187 4.265625.601562-1.382813 1.101562-2.808594 1.492187-4.265625zm-3.523437 7.933593c-.128906.214844-.222656.453126-.367188.65625.144532-.203124.238282-.441406.367188-.65625zm-19.328125-68.660156c-1.503907-.441406-3.023438-.851562-4.632813-1.285156 1.609375.40625 3.128906.84375 4.632813 1.285156zm-8.242188-2.140625c-1.605469-.359375-3.261719-.714843-4.960937-1.050781 1.707031.335938 3.347656.691406 4.960937 1.050781zm-9.046875-1.84375c-1.707031-.304687-3.472656-.589843-5.265625-.851562 1.792969.296875 3.550781.578125 5.265625.851562zm-9.71875-1.535156c-1.800781-.246094-3.652344-.476563-5.511718-.707031 1.859374.261718 3.703124.535156 5.503906.742187zm-10.242187-1.28125c-1.867188-.203125-3.777344-.382813-5.683594-.570313 1.871094.222657 3.78125.402344 5.675781.605469zm-202.777344-165.058594c-.324219 6.632813-3.214844 12.882813-8.0625 17.425781 4.847656-4.542968 7.738281-10.792968 8.0625-17.425781zm148.753906-173.03125-.945312.128907.945312-.152344zm-20.410156 102.28125c-.769531-.265625-1.589844-.613281-2.398437-.949219.808593.335938 1.621093.640626 2.398437.949219zm-4.371094-1.785156c-.921875-.425781-1.867187-.9375-2.824219-1.441406.957032.503906 1.902344 1.015625 2.824219 1.441406zm-4.703125-2.449219c-1.253906-.714844-2.558594-1.527344-3.8125-2.363281 1.28125.835937 2.558594 1.648437 3.8125 2.363281zm35.96875-2.355468c-1.277344.855468-2.558594 1.648437-3.796875 2.355468 1.246094-.714844 2.519531-1.515625 3.796875-2.355468zm-5.671875 3.363281c-.957031.503906-1.90625 1.015625-2.828125 1.441406.921875-.425781 1.871094-.9375 2.828125-1.441406zm-4.796875 2.277343c-.855468.335938-1.628906.683594-2.398437.949219.777343-.308593 1.585937-.613281 2.371093-.949219zm16.527344-9.941406c4.269531-3.3125 8.285156-6.9375 12.015625-10.84375-5.15625 5.429688-10.878906 10.292969-17.066406 14.507813 1.679687-1.136719 3.363281-2.347657 5.050781-3.664063zm33.792969-55.976562c-.023438 2.476562-.257813 4.945312-.699219 7.382812.441406-2.4375.675781-4.90625.699219-7.382812zm-1.1875 9.601562c-.378907 1.769532-.855469 3.515625-1.414063 5.238282.5625-1.722657 1.035156-3.46875 1.414063-5.238282zm-2.207031 7.507813c-.703126 1.859375-1.496094 3.699219-2.382813 5.511719.886719-1.8125 1.675781-3.652344 2.363281-5.511719zm-3.117188 7.066406c-2.539062 4.855469-5.542969 9.457031-8.96875 13.738281 3.425781-4.28125 6.429688-8.882812 8.96875-13.738281zm-9.703125 14.652344c-1.539063 1.898437-3.140625 3.734375-4.792969 5.503906 1.644532-1.765625 3.242188-3.601563 4.792969-5.503906zm-56.914063-74.242188.945313.152344zm6.089844.855469 1.117188.117188zm-18.636718 90.535156c1.707031 1.316406 3.390624 2.535156 5.042968 3.652344-6.1875-4.210938-11.910156-9.074219-17.066406-14.503906 3.734375 3.910156 7.753906 7.539062 12.023438 10.851562zm-32.605469-46.375c.382812 1.769532.855469 3.515625 1.417969 5.238282-.5625-1.722657-1.035157-3.46875-1.417969-5.238282zm2.210937 7.507813c.699219 1.859375 1.492188 3.699219 2.378906 5.511719-.886718-1.8125-1.671874-3.652344-2.363281-5.511719zm3.113282 7.066406c2.542968 4.855469 5.546874 9.457031 8.96875 13.738281-3.421876-4.28125-6.425782-8.882812-8.96875-13.738281zm9.703124 14.652344c1.542969 1.898437 3.140626 3.734375 4.796876 5.503906-1.644532-1.765625-3.242188-3.601563-4.796876-5.503906zm31.976563 148.121093c-1.570313-1.621093-3.300781-3.078124-5.164063-4.351562 1.867188 1.269531 3.605469 2.730469 5.179688 4.351562zm4.042969 5.050782c-.246094-.375-.589844-.699219-.851563-1.066406.28125.367187.621094.691406.867188 1.066406zm4.199218-124.101563c-.382812-.074219-.8125-.210937-1.210937-.316406.417969.105469.84375.242187 1.226563.316406zm7.78125-.316406c-.402343.105469-.851562.242187-1.210937.316406.402344-.074219.828125-.210937 1.230469-.316406zm2.707032 124.957031c-1.039063 1.625-1.9375 3.339844-2.679688 5.117188.75-1.78125 1.652344-3.492188 2.695313-5.117188zm9.503906-9.925781c-1.863281 1.273437-3.589844 2.730469-5.160156 4.351563-1.167969 1.242187-2.234375 2.578124-3.191406 3.984374-.265626.367188-.609376.691407-.855469 1.066407 2.421875-3.707031 5.550781-6.902344 9.207031-9.402344zm13.261719-222.039063v-.042968c10.203125-3.171875 20.15625-7.09375 29.78125-11.730469-9.621094 4.660156-19.574219 8.597656-29.78125 11.773437zm-22.648438 4.839844-1.117187.121094zm-37.230469-4.882812v.042968c-10.214843-3.175781-20.179687-7.109374-29.804687-11.773437 9.632813 4.640625 19.59375 8.5625 29.804687 11.730469zm-29.105468 46.851562c-.441406-2.4375-.675782-4.90625-.699219-7.382812.023437 2.476562.257813 4.945312.699219 7.382812zm.085937 146.3125c-1.421875-.9375-2.910156-1.761718-4.457031-2.476562 1.554688.691406 3.046875 1.519531 4.457031 2.476562zm-23.578125-59.964844 14.890625 55.832032c-12.789062-4.171875-26.835937-.417969-35.839843 9.574218-8.78125-20.582031-17.605469-41.667968-25.96875-61.882812l21.273437-13.523438c4.589844-2.917968 10.292969-3.472656 15.355469-1.496093 5.066406 1.972656 8.886718 6.242187 10.289062 11.496093zm15.109375 146.996094c-3.554687-7.679687-7.277343-15.796875-11.089843-24.355468 3.8125 8.558593 7.535156 16.726562 11.089843 24.355468zm-11.996093-26.328125c-.972657-2.167969-1.949219-4.355469-2.925782-6.5625.984375 2.214844 1.957032 4.402344 2.925782 6.5625zm-4.179688-9.386719c-.855469-1.894531-1.707031-3.796874-2.5625-5.722656.878906 1.910156 1.726562 3.804688 2.527344 5.707032zm-4.070312-9.242187-2.347657-5.355469zm-4.03125-9.214844-2.269532-5.230469zm-3.957032-9.136719-2.339844-5.429687zm-3.976562-9.226562-2.773438-6.519531zm-38.792969-65.21875 3.234375-2.050781-3.234375 2.050781c-2.546875 1.617188-4.34375 4.179688-5 7.125.652344-2.953125 2.449219-5.523438 5-7.144531zm21.921875 179.898438-.128906-.273438zm-44.433594-121.121094h.605469c-.203125 0-.398437.007812-.605469 0zm12.554688-2.980469c-1.359375.757813-2.789063 1.375-4.269532 1.84375 1.480469-.472656 2.910157-1.09375 4.269532-1.851563 1.574218-.882812 3.054687-1.929687 4.410156-3.121093-1.359375 1.191406-2.835938 2.242187-4.410156 3.128906zm-8.484375 2.785156c.582031-.085937 1.152343-.222656 1.707031-.351562-.554688.121093-1.117188.273437-1.707031.351562zm19.347656 71.558594-.054687-.128906zm43.730469 97.210937v.050782zm33.964844-73.609374c.851562 1.792968 1.707031 3.535156 2.558593 5.242187-.835937-1.691406-1.6875-3.449219-2.558593-5.242187zm-6.964844-14.632813c.949218 2.015625 1.878906 4.003906 2.800781 5.972656zm3.652344 7.722656c.855468 1.824219 1.707031 3.617188 2.558593 5.359375-.839843-1.746094-1.699219-3.535156-2.574219-5.359375zm9.539062 19.457031c3.054688 5.972657 5.855469 11.203126 8.355469 15.519532l37.445312-54.738282c5.257813-7.714843 7.109375-17.257812 5.121094-26.378906l2.667969 1.136719 2.644531-1.136719c-1.988281 9.121094-.136719 18.664063 5.121094 26.378906l48.980469 71.609376c-34.039063-2.984376-71.789063-2.984376-90.878907-2.984376-3.164062 0-10.171875-11.207031-19.457031-29.40625zm-3.019531-6.015624c.90625 1.824218 1.792969 3.582031 2.652343 5.289062-.859374-1.707031-1.746093-3.464844-2.652343-5.289062zm0 0" fill="#c9ced1"/><path d="m82.492188 233.644531c3.773437 5.9375 4.941406 13.164063 3.230468 19.988281-1.710937 6.824219-6.148437 12.648438-12.277344 16.105469-6.878906 3.765625-15.125 4.078125-22.269531.855469.613281-.25 1.210938-.535156 1.789063-.855469 6.097656-3.484375 10.511718-9.308593 12.21875-16.121093 1.707031-6.8125.5625-14.027344-3.171875-19.972657l-2.644531-4.097656c-1.609376-2.535156-2.140626-5.605469-1.484376-8.53125.65625-2.929687 2.445313-5.476563 4.980469-7.085937l30.296875-19.285157c5.957032-3.792969 13.644532-3.488281 19.285156.769531l-29.015624 18.515626c-2.550782 1.59375-4.355469 4.140624-5.015626 7.078124-.65625 2.933594-.109374 6.011719 1.515626 8.539063zm0 0" fill="#c52828"/><path d="m413.925781 247.296875-36.265625 58.539063c-4.195312 6.734374-11.300781 11.121093-19.199218 11.859374-4.421876.53125-8.90625-.144531-12.972657-1.960937 4.804688-2.011719 8.863281-5.472656 11.605469-9.898437l36.265625-58.539063c14.753906-23.832031 7.605469-55.097656-16.042969-70.144531l-96.082031-61.097656c.238281-1.695313.355469-3.410157.339844-5.121094v-7.765625l116.308593 73.984375c23.644532 15.046875 30.796876 46.3125 16.042969 70.144531zm0 0" fill="#c52828"/><path d="m393.359375 247.296875-36.265625 58.539063c-2.742188 4.425781-6.800781 7.886718-11.605469 9.898437-1.058593-.472656-2.082031-1.015625-3.070312-1.621094-11.292969-7.023437-15.304688-21.542969-9.21875-33.367187.28125-.640625.59375-1.269532.941406-1.875l27.816406-44.886719c4.707031-7.570313 2.417969-17.515625-5.117187-22.273437l-26.796875-17.066407c-5.988281-3.792969-13.699219-3.484375-19.371094.769531-3.097656 2.253907-5.328125 5.507813-6.3125 9.214844l-14.847656 55.894532c-3.097657.90625-6.035157 2.289062-8.707031 4.09375l-42.238282 28.929687c-7.25 4.929687-12.300781 12.488281-14.082031 21.078125l-2.644531 1.109375-2.644532-1.109375c-1.210937-5.648438-3.820312-10.902344-7.59375-15.277344-1.894531-2.210937-4.074218-4.164062-6.484374-5.800781l-42.242188-28.929687c-2.671875-1.804688-5.609375-3.1875-8.703125-4.09375l-14.847656-55.894532c-1.433594-5.242187-5.261719-9.496094-10.328125-11.464844-5.0625-1.96875-10.761719-1.417968-15.359375 1.480469l-1.191407.769531c-5.640624-4.257812-13.328124-4.5625-19.285156-.769531l-30.296875 19.285157c-2.535156 1.609374-4.324219 4.15625-4.980469 7.085937-.65625 2.925781-.125 5.996094 1.484376 8.53125l2.644531 4.097656c3.734375 5.945313 4.878906 13.160157 3.171875 19.972657-1.707032 6.8125-6.121094 12.636718-12.21875 16.121093-.578125.320313-1.175782.605469-1.789063.855469-5.195312-2.195312-9.601562-5.914062-12.628906-10.667969l-8.875-13.910156c-7.046875-11.066406-9.40625-24.476563-6.554687-37.28125 2.847656-12.804687 10.667968-23.953125 21.742187-30.984375l97.023437-61.695312 20.226563-12.886719v7.765625c0 28.5 29.78125 57.003906 49.492187 65.621094 3.207032 1.546874 6.683594 2.445312 10.238282 2.644531 16.214844 0 55.554687-30.804688 59.394531-63.144531l96.082031 61.097656c23.648438 15.046875 30.796875 46.3125 16.042969 70.144531zm0 0" fill="#f44335"/><path d="m281.234375 116.054688c-3.839844 32.339843-43.179687 63.144531-59.394531 63.144531-3.554688-.199219-7.03125-1.097657-10.238282-2.644531 19.710938-8.703126 49.40625-37.121094 49.40625-65.621094v-7.765625zm0 0" fill="#c52828"/><path d="m281.574219 59.734375v51.199219c0 21.503906-16.980469 43.007812-33.792969 55.976562-5.828125 4.746094-12.402344 8.496094-19.453125 11.09375-4.179687 1.59375-8.796875 1.59375-12.972656 0-.683594-.253906-1.363281-.425781-2.046875-.679687-6.238282-2.683594-12.09375-6.183594-17.410156-10.414063-16.808594-12.96875-33.789063-34.472656-33.789063-55.976562v-51.199219c9.617187 4.660156 19.574219 8.597656 29.78125 11.773437 5.421875 1.699219 10.953125 3.039063 16.554687 4.011719 1.621094.257813 3.242188.511719 4.863282.683594 2.824218.40625 5.675781.605469 8.53125.597656 4.496094-.0625 8.976562-.492187 13.398437-1.28125 5.601563-.972656 11.128907-2.3125 16.554688-4.011719 4.523437-1.449218 8.875-2.984374 12.714843-4.4375 10.070313-3.839843 17.066407-7.335937 17.066407-7.335937zm0 0" fill="#37474f"/><path d="m264.507812 59.734375v51.199219c0 21.503906-16.980468 43.007812-33.792968 55.976562-5.3125 4.230469-11.167969 7.730469-17.40625 10.414063-6.238282-2.683594-12.09375-6.183594-17.410156-10.414063-16.808594-12.96875-33.789063-34.472656-33.789063-55.976562v-43.863282c3.839844 1.453126 8.191406 2.988282 12.710937 4.4375 5.425782 1.699219 10.957032 3.039063 16.554688 4.011719 4.425781.789063 8.90625 1.21875 13.398438 1.28125 2.855468.007813 5.707031-.191406 8.535156-.597656 1.621094-.171875 3.242187-.425781 4.863281-.683594 5.597656-.972656 11.128906-2.3125 16.554687-4.011719 10.207032-3.175781 20.160157-7.113281 29.78125-11.773437zm0 0" fill="#607d8b"/><path d="m44.894531 177.714844 27.757813-17.65625c-9.53125-23.523438-17.605469-43.570313-22.945313-56.949219-1.738281-4.347656-5.34375-7.679687-9.820312-9.066406-4.472657-1.382813-9.328125-.675781-13.21875 1.929687-5.722657 3.820313-8.25 10.949219-6.214844 17.519532l20.609375 66.972656c1.21875-.984375 2.492188-1.894532 3.832031-2.75zm0 0" fill="#ffb301"/><path d="m349.585938 480.597656c-3.605469 13.523438-15.875 22.914063-29.867188 22.867188h-140.542969c-36.011719 0-102.316406-176.125-122.199219-231.167969 5.621094 1.109375 11.453126.203125 16.46875-2.558594 9.613282-5.414062 14.644532-16.40625 12.460938-27.222656-.488281-3.167969-1.652344-6.195313-3.414062-8.871094l-.9375-1.539062-1.625-2.558594c-1.636719-2.527344-2.191407-5.605469-1.53125-8.542969.65625-2.9375 2.472656-5.488281 5.03125-7.074218l8.960937-5.714844c37.972656 91.730468 85.417969 201.386718 95.316406 201.386718 34.132813 0 128 0 153.601563 17.066407 16.980468 11.347656 12.628906 36.949219 8.277344 53.929687zm0 0" fill="#ffb301"/><path d="m79.929688 229.546875c-1.074219-1.660156-1.691407-3.574219-1.789063-5.546875 1.195313 2.644531 2.304687 5.375 3.414063 8.105469zm0 0" fill="#f57c00"/><path d="m328.847656 480.597656c-3.589844 13.496094-15.816406 22.882813-29.78125 22.867188h-119.890625c-36.011719 0-102.316406-176.125-122.199219-231.167969 5.621094 1.109375 11.453126.203125 16.46875-2.558594 9.613282-5.414062 14.644532-16.40625 12.460938-27.222656 34.816406 82.691406 72.363281 167.085937 81.066406 167.085937 34.132813 0 128 0 153.597656 17.066407 16.984376 11.347656 12.628907 36.949219 8.277344 53.929687zm0 0" fill="#fec108"/><path d="m214.074219 340.992188-37.460938 54.699218c-3.667969-6.402344-8.105469-14.679687-12.882812-24.578125-12.800781-26.109375-29.015625-62.71875-45.398438-101.035156 6.300781-7.074219 15.273438-11.191406 24.746094-11.347656 7.058594-.191407 13.992187 1.871093 19.796875 5.886719l42.242188 28.929687c7.480468 5.101563 12.628906 12.96875 14.308593 21.867187 1.679688 8.898438-.246093 18.097657-5.351562 25.578126zm0 0" fill="#37474f"/><path d="m135.738281 455.425781-22.699219 33.191407c-10.648437 15.550781-31.890624 19.527343-47.445312 8.875l-3.839844-2.644532-38.398437-26.28125c-15.550781-10.652344-19.523438-31.894531-8.875-47.445312l50.773437-74.15625 12.800782-18.773438c16.472656 43.609375 35.738281 86.105469 57.683593 127.234375zm0 0" fill="#37474f"/><path d="m190.269531 332.457031-26.539062 38.65625c-12.800781-26.109375-29.015625-62.71875-45.398438-101.035156 6.300781-7.074219 15.273438-11.191406 24.746094-11.347656l38.316406 26.28125c15.550781 10.652343 19.523438 31.894531 8.875 47.445312zm0 0" fill="#607d8b"/><path d="m119.441406 435.199219-30.125 44.886719c-6.234375 9.113281-16.519531 14.621093-27.5625 14.761718l-38.398437-26.28125c-15.550781-10.652344-19.523438-31.894531-8.875-47.445312l62.292969-96.855469c14.167968 34.476563 26.625 82.519531 42.667968 110.933594zm0 0" fill="#607d8b"/><path d="m420.328125 468.566406-42.242187 28.925782c-10.535157 7.1875-24.207032 7.878906-35.414063 1.792968-1.339844-.695312-2.625-1.492187-3.839844-2.390625 5.285157-4.097656 9.0625-9.828125 10.753907-16.296875 4.351562-16.980468 8.703124-42.582031-8.277344-53.929687-11.265625-7.511719-35.839844-11.691407-62.722656-14.082031l-48.980469-71.59375c-5.238281-7.71875-7.085938-17.25-5.121094-26.367188.847656-4.175781 2.5-8.148438 4.867187-11.691406.304688-.355469.589844-.722656.851563-1.109375.929687-1.402344 1.988281-2.714844 3.15625-3.925781 1.558594-1.652344 3.304687-3.113282 5.207031-4.351563l42.238282-28.929687c1.5-.96875 3.070312-1.824219 4.695312-2.558594 1.308594-.585938 2.644531-1.097656 4.011719-1.535156.425781-.171876.9375-.257813 1.363281-.425782 14.042969-3.988281 29.0625 1.398438 37.375 13.394532l4.949219 7.253906c-6.085938 11.824218-2.074219 26.34375 9.21875 33.367187 4.78125 2.988281 10.441406 4.25 16.042969 3.582031l70.738281 103.425782c10.652343 15.550781 6.679687 36.792968-8.871094 47.445312zm0 0" fill="#37474f"/><path d="m332.859375 314.964844 70.742187 103.425781c10.648438 15.550781 6.675782 36.792969-8.875 47.445313l-42.242187 28.839843c-2.984375 2.082031-6.304687 3.640625-9.8125 4.609375-1.339844-.695312-2.625-1.492187-3.839844-2.390625 5.285157-4.097656 9.0625-9.828125 10.753907-16.296875 4.351562-16.980468 8.703124-42.582031-8.277344-53.929687-11.265625-7.511719-35.839844-11.691407-62.722656-14.082031l-48.980469-71.59375c-5.238281-7.71875-7.085938-17.25-5.121094-26.367188.847656-4.175781 2.5-8.148438 4.867187-11.691406.304688-.355469.589844-.722656.851563-1.109375.929687-1.402344 1.988281-2.714844 3.15625-3.925781 1.558594-1.652344 3.304687-3.113282 5.207031-4.351563l42.238282-28.929687c1.5-.96875 3.070312-1.824219 4.695312-2.558594 1.308594-.585938 2.644531-1.097656 4.011719-1.535156.425781-.171876.9375-.257813 1.363281-.425782 4.726562 2.554688 8.765625 6.214844 11.777344 10.664063l4.949218 7.253906zm0 0" fill="#607d8b"/><path d="m298.640625 59.734375c0 34.132813-17.066406 42.664063-17.066406 42.664063v-42.664063s-3.328125 1.621094-8.617188 3.925781c-4.4375 1.875-10.410156 4.265625-16.984375 6.484375-10.980468 3.914063-22.484375 6.160157-34.132812 6.65625-4.292969-.03125-8.574219-.429687-12.800782-1.195312-16.25-3.285157-32.019531-8.617188-46.929687-15.871094v42.664063s-15.703125-7.847657-16.984375-38.738282c-.085938-1.28125-.085938-2.5625-.085938-3.925781 0-31.148437 22.101563-48.042969 64-50.773437 4.097657-.257813 8.363282-.425782 12.800782-.425782 50.175781 0 76.800781 17.066406 76.800781 51.199219zm0 0" fill="#9e9e9e"/><path d="m273.039062 59.734375c0 1.363281 0 2.644531-.082031 3.925781-4.4375 1.875-10.410156 4.265625-16.984375 6.484375v-10.410156c-14.910156 7.253906-30.679687 12.585937-46.933594 15.871094-4.222656.765625-8.503906 1.164062-12.796874 1.195312-11.648438-.496093-23.15625-2.742187-34.132813-6.65625-6.574219-2.21875-12.546875-4.609375-16.984375-6.484375-.085938-1.28125-.085938-2.5625-.085938-3.925781 0-31.148437 22.101563-48.042969 64-50.773437 41.902344 2.730468 64 19.625 64 50.773437zm0 0" fill="#cfd8dc"/><path d="m221.839844 187.734375c-21.332032 0-68.265625-37.128906-68.265625-76.800781v-51.199219c0-2.957031 1.527343-5.707031 4.042969-7.261719 2.515624-1.554687 5.660156-1.699218 8.304687-.375.316406.167969 32.664063 16.167969 55.917969 16.167969s55.597656-16 55.921875-16.167969c2.644531-1.324218 5.785156-1.179687 8.300781.375 2.515625 1.554688 4.046875 4.304688 4.046875 7.261719v51.199219c0 39.671875-46.933594 76.800781-68.269531 76.800781zm-51.199219-114.851563v38.050782c0 30.089844 40.105469 59.734375 51.199219 59.734375s51.199218-29.644531 51.199218-59.734375v-38.050782c-16.1875 7.160157-33.527343 11.378907-51.199218 12.449219-17.671875-1.070312-35.007813-5.289062-51.199219-12.449219zm0 0"/><path d="m281.574219 110.933594c-4.710938 0-8.535157-3.820313-8.535157-8.535156v-29.515626c-16.1875 7.160157-33.527343 11.378907-51.199218 12.449219-17.671875-1.070312-35.007813-5.289062-51.199219-12.449219v29.515626c0 2.960937-1.527344 5.707031-4.042969 7.261718-2.515625 1.558594-5.660156 1.699219-8.304687.378906-2.234375-1.121093-21.785157-12.007812-21.785157-50.304687 0-27.246094 14.804688-59.734375 85.332032-59.734375s85.335937 32.488281 85.335937 59.734375c0 38.296875-19.550781 49.183594-21.789062 50.34375-1.1875.578125-2.492188.871094-3.8125.855469zm-119.464844-59.734375c1.320313 0 2.628906.304687 3.8125.898437.316406.167969 32.664063 16.167969 55.917969 16.167969s55.597656-16 55.921875-16.167969c2.644531-1.324218 5.785156-1.179687 8.300781.375 2.515625 1.554688 4.046875 4.304688 4.046875 7.261719 0-10.558594 0-42.667969-68.269531-42.667969-68.265625 0-68.265625 32.109375-68.265625 42.667969 0-4.714844 3.820312-8.535156 8.535156-8.535156zm0 0"/><path d="m221.839844 128c-22.515625-.789062-44.332032-8.03125-62.847656-20.863281-2.601563-1.652344-4.109376-4.582031-3.945313-7.660157.164063-3.078124 1.976563-5.828124 4.738281-7.191406 2.761719-1.367187 6.046875-1.136718 8.59375.601563 15.738282 10.988281 34.285156 17.25 53.460938 18.046875 19.179687-.796875 37.730468-7.058594 53.472656-18.046875 2.542969-1.738281 5.828125-1.96875 8.59375-.601563 2.761719 1.363282 4.574219 4.113282 4.738281 7.191406.164063 3.078126-1.34375 6.007813-3.945312 7.660157-18.519531 12.835937-40.339844 20.078125-62.859375 20.863281zm0 0"/><path d="m207.53125 183.109375c-3.53125-.003906-6.699219-2.183594-7.960938-5.480469-12.535156-33.828125-15.226562-70.515625-7.757812-105.8125.648438-3.011718 2.871094-5.4375 5.8125-6.351562 2.941406-.914063 6.148438-.167969 8.386719 1.945312 2.242187 2.117188 3.167969 5.273438 2.421875 8.261719-6.605469 31.984375-4.15625 65.179687 7.066406 95.847656 1.691406 4.398438-.507812 9.335938-4.90625 11.027344-.976562.371094-2.015625.5625-3.0625.5625zm0 0"/><path d="m236.152344 183.109375c-1.046875 0-2.085938-.191406-3.066406-.5625-4.398438-1.691406-6.59375-6.628906-4.90625-11.027344 11.222656-30.667969 13.671874-63.855469 7.066406-95.835937-.742188-2.992188.183594-6.148438 2.421875-8.265625 2.242187-2.113281 5.445312-2.859375 8.386719-1.945313 2.945312.914063 5.167968 3.339844 5.816406 6.351563 7.464844 35.296875 4.777344 71.984375-7.757813 105.8125-1.265625 3.296875-4.433593 5.46875-7.960937 5.472656zm0 0"/><path d="m221.839844 187.734375c-21.332032 0-68.265625-37.128906-68.265625-76.800781v-51.199219c0-2.957031 1.527343-5.707031 4.042969-7.261719 2.515624-1.554687 5.660156-1.699218 8.304687-.375.316406.167969 32.664063 16.167969 55.917969 16.167969s55.597656-16 55.921875-16.167969c2.644531-1.324218 5.785156-1.179687 8.300781.375 2.515625 1.554688 4.046875 4.304688 4.046875 7.261719v51.199219c0 39.671875-46.933594 76.800781-68.269531 76.800781zm-51.199219-114.851563v38.050782c0 30.089844 40.105469 59.734375 51.199219 59.734375s51.199218-29.644531 51.199218-59.734375v-38.050782c-16.1875 7.160157-33.527343 11.378907-51.199218 12.449219-17.671875-1.070312-35.007813-5.289062-51.199219-12.449219zm0 0"/><path d="m355.6875 326.410156c-6.277344.023438-12.433594-1.714844-17.769531-5.019531-15.152344-9.292969-20.53125-28.726563-12.320313-44.492187.359375-.855469.78125-1.6875 1.253906-2.484376l27.828126-44.960937c2.214843-3.574219 1.144531-8.261719-2.398438-10.523437l-26.84375-17.066407c-2.296875-1.449219-5.140625-1.71875-7.667969-.730469-2.527343.988282-4.433593 3.121094-5.132812 5.742188l-14.890625 55.839844c-.742188 2.789062-2.847656 5.015625-5.589844 5.914062-2.308594.703125-4.503906 1.726563-6.519531 3.046875l-42.257813 28.902344c-5.414062 3.710937-9.183594 9.375-10.511718 15.804687-.578126 2.714844-2.441407 4.984376-4.992188 6.074219l-2.644531 1.128907c-2.148438.917968-4.578125.917968-6.726563 0l-2.644531-1.128907c-2.554687-1.089843-4.417969-3.359375-4.992187-6.074219-1.328126-6.429687-5.097657-12.089843-10.511719-15.796874l-42.257813-28.910157c-2.019531-1.320312-4.214844-2.34375-6.519531-3.046875-2.746094-.898437-4.847656-3.125-5.589844-5.914062l-14.890625-55.839844c-.703125-2.621094-2.605468-4.753906-5.132812-5.742188-2.527344-.988281-5.375-.71875-7.667969.730469l-30.234375 19.234375c-1.3125.851563-1.695312 2.605469-.851562 3.925782l2.558593 4.054687c4.992188 7.917969 6.535157 17.53125 4.269531 26.613281-2.261718 9.113282-8.207031 16.878906-16.410156 21.4375-16.347656 8.777344-36.707031 3.21875-46.328125-12.648437l-8.796875-13.890625c-17.179687-27.035156-9.203125-62.878906 17.824219-80.078125l117.207031-74.527344c2.625-1.667969 5.953125-1.773437 8.683594-.277344 2.726562 1.5 4.421875 4.367188 4.421875 7.476563v7.75c0 30.089844 40.105469 59.734375 51.199219 59.734375s51.199218-29.644531 51.199218-59.734375v-7.75c.003907-3.109375 1.699219-5.976563 4.425782-7.476563 2.726562-1.496093 6.054687-1.390625 8.683594.277344l116.273437 73.941406c27.515625 17.601563 35.863281 53.996094 18.773437 81.832031l-36.257812 58.574219c-5.570312 9.015625-15.046875 14.894531-25.597656 15.890625-1.214844.125-2.433594.1875-3.652344.1875zm-34.78125-142.945312c4.839844.015625 9.578125 1.410156 13.652344 4.03125l26.84375 17.066406c11.394531 7.300781 14.847656 22.378906 7.765625 33.910156l-27.828125 44.945313-.554688 1.238281c-4.085937 8.101562-1.089844 17.988281 6.8125 22.457031 7.898438 4.472657 17.914063 1.949219 22.757813-5.722656l36.257812-58.574219c12.246094-19.875 6.3125-45.894531-13.335937-58.496094l-103.707032-65.9375c-5.265624 36.746094-47.746093 69.351563-67.730468 69.351563s-62.464844-32.605469-67.726563-69.351563l-104.644531 66.535157c-19.066406 12.140625-24.695312 37.425781-12.578125 56.507812l8.832031 13.898438c4.828125 8.105469 15.078125 11.132812 23.535156 6.949219 4.089844-2.296876 7.054688-6.171876 8.199219-10.722657 1.144531-4.546875.367188-9.367187-2.152343-13.324219l-2.558594-4.054687c-5.875-9.28125-3.140625-21.566406 6.117187-27.476563l30.242188-19.234374c6.886719-4.386719 15.449219-5.226563 23.054687-2.261719 7.605469 2.960937 13.339844 9.375 15.441406 17.261719l13.761719 51.617187c2.238281.957031 4.378907 2.132813 6.386719 3.507813l42.253906 28.902343c4.746094 3.246094 8.773438 7.433594 11.835938 12.296875 3.078125-4.871094 7.121094-9.058594 11.878906-12.304687l42.257812-28.894531c2.007813-1.375 4.144532-2.550782 6.382813-3.507813l13.765625-51.617187c2.054688-7.914063 7.800781-14.351563 15.433594-17.289063 2.984375-1.144531 6.152344-1.722656 9.347656-1.707031zm0 0"/><path d="m41.054688 188.980469c-.867188-.003907-1.730469-.136719-2.5625-.394531-2.683594-.839844-4.78125-2.949219-5.605469-5.640626l-20.597657-66.96875c-2.621093-8.539062-.300781-17.824218 6.023438-24.128906 6.328125-6.304687 15.621094-8.589844 24.148438-5.941406 6.921874 2.144531 12.496093 7.304688 15.171874 14.035156 5.335938 13.371094 13.363282 33.390625 22.929688 56.902344 1.558594 3.816406.160156 8.203125-3.320312 10.417969l-27.773438 17.65625c-1.089844.691406-2.140625 1.4375-3.148438 2.234375-1.503906 1.179687-3.355468 1.824218-5.265624 1.828125zm-5.785157-87.101563c-2.210937.023438-4.285156 1.082032-5.59375 2.863282-1.3125 1.78125-1.707031 4.074218-1.070312 6.191406l17.242187 56.0625 16.214844-10.316406c-8.398438-20.699219-15.445312-38.28125-20.292969-50.414063-.757812-1.957031-2.375-3.453125-4.386719-4.0625-.683593-.210937-1.398437-.320313-2.113281-.324219zm0 0"/><path d="m319.761719 512h-140.585938c-29.730469 0-73.550781-79.683594-130.253906-236.835938-1.035156-2.871093-.457031-6.082031 1.519531-8.410156 1.960938-2.347656 5.039063-3.449218 8.046875-2.878906 3.667969.746094 7.484375.179688 10.777344-1.601562 4.089844-2.296876 7.058594-6.171876 8.203125-10.722657 1.144531-4.546875.363281-9.367187-2.152344-13.324219l-2.5625-4.054687c-5.875-9.28125-3.140625-21.566406 6.121094-27.476563l8.96875-5.710937c2.125-1.351563 4.746094-1.695313 7.152344-.933594 2.40625.757813 4.351562 2.546875 5.3125 4.878907 65.722656 158.957031 84.761718 190.164062 89.960937 196.136718 60.269531.058594 131.554688 2.328125 155.816407 18.5 23.894531 15.921875 14.773437 51.457032 11.785156 63.148438-4.519532 17.320312-20.207032 29.378906-38.109375 29.285156zm-250.753907-231.535156c53.921876 147.261718 94.738282 214.46875 110.167969 214.46875h140.585938c10.101562.078125 18.96875-6.703125 21.546875-16.46875 6.125-23.894532 4.574218-38.503906-4.71875-44.699219-15.574219-10.375-65.664063-15.632813-148.882813-15.632813-8.164062 0-17.414062 0-99.308593-197.289062l-.394532.246094c-1.316406.851562-1.695312 2.605468-.851562 3.925781l2.558594 4.054687c4.992187 7.917969 6.535156 17.53125 4.265624 26.613282-2.242187 9.105468-8.164062 16.875-16.347656 21.453125-2.695312 1.523437-5.601562 2.644531-8.621094 3.328125zm0 0"/><path d="m176.613281 404.25h-.316406c-2.929687-.113281-5.597656-1.726562-7.0625-4.265625-11.90625-20.53125-31.652344-63.148437-58.71875-126.578125-1.304687-3.050781-.71875-6.582031 1.5-9.050781 14.25-15.882813 38.039063-18.796875 55.699219-6.828125l42.257812 28.902344c19.433594 13.316406 24.398438 39.859374 11.089844 59.296874l-37.441406 54.75c-1.570313 2.335938-4.191406 3.75-7.007813 3.773438zm-48.042969-131.984375c21.105469 49.3125 37.480469 85.222656 48.863282 107.125l29.578125-43.226563c7.960937-11.679687 4.972656-27.597656-6.683594-35.59375l-42.257813-28.902343c-8.96875-6.058594-20.78125-5.820313-29.5.597656zm0 0"/><path d="m84.804688 512c-8.566407 0-16.933594-2.605469-23.988282-7.464844l-42.257812-28.894531c-19.4375-13.316406-24.402344-39.867187-11.09375-59.308594l63.523437-92.917969c1.785157-2.609374 4.867188-4.015624 8.007813-3.65625 3.136718.355469 5.824218 2.421876 6.976562 5.363282 16.410156 43.203125 35.503906 85.335937 57.175782 126.15625 1.59375 2.832031 1.441406 6.328125-.394532 9.011718l-22.671875 33.140626c-6.355469 9.359374-16.1875 15.785156-27.308593 17.851562-2.628907.484375-5.296876.726562-7.96875.71875zm-8.78125-165.726562-54.511719 79.695312c-3.835938 5.601562-5.285157 12.503906-4.03125 19.179688 1.25 6.675781 5.105469 12.578124 10.714843 16.410156l42.253907 28.902344c5.605469 3.835937 12.503906 5.285156 19.179687 4.03125 6.671875-1.253907 12.574219-5.105469 16.40625-10.710938l19.6875-28.792969c-18.550781-35.296875-35.144531-71.589843-49.699218-108.714843zm0 0"/><path d="m358.945312 511.914062c-9.015624.003907-17.800781-2.835937-25.105468-8.125-2.179688-1.570312-3.492188-4.074218-3.542969-6.761718-.046875-2.683594 1.167969-5.238282 3.289063-6.890625 3.785156-2.9375 6.484374-7.050781 7.679687-11.691407 6.117187-23.890624 4.574219-38.5-4.71875-44.695312-5.972656-3.960938-20.933594-9.386719-58.703125-12.671875-2.542969-.226563-4.855469-1.578125-6.296875-3.6875l-48.980469-71.621094c-6.613281-9.625-8.945312-21.5625-6.441406-32.972656 1.09375-5.164063 3.136719-10.085937 6.023438-14.503906.195312-.308594.851562-1.179688 1.101562-1.445313 1.203125-1.722656 2.527344-3.355468 3.96875-4.886718 1.96875-2.03125 4.140625-3.859376 6.476562-5.453126l42.253907-28.902343c1.875-1.242188 3.84375-2.332031 5.890625-3.261719 1.765625-.785156 3.351562-1.398438 4.949218-1.929688 17.984376-5.863281 37.691407.769532 48.46875 16.316407l4.957032 7.253906c1.761718 2.578125 1.976562 5.914063.554687 8.695313-2.90625 5.523437-2.523437 12.199218 1 17.351562 3.519531 5.152344 9.601563 7.9375 15.800781 7.234375 3.113282-.308594 6.144532 1.097656 7.921876 3.667969l70.730468 103.425781c13.308594 19.4375 8.339844 45.984375-11.09375 59.296875l-42.265625 28.886719c-7.042969 4.816406-15.382812 7.386719-23.917969 7.371093zm-6.117187-17.835937c7.011719 1.742187 14.429687.414063 20.402344-3.652344l42.257812-28.902343c5.605469-3.832032 9.457031-9.734376 10.710938-16.40625 1.253906-6.671876-.195313-13.570313-4.03125-19.175782l-68.128907-99.566406c-5.710937-.257812-11.261718-1.972656-16.121093-4.984375-13.4375-8.234375-19.402344-24.664063-14.367188-39.601563l-2.347656-3.414062c-6.410156-9.398438-18.296875-13.375-29.074219-9.730469-1.066406.351563-2.113281.769531-3.15625 1.230469-1.167968.519531-2.289062 1.125-3.363281 1.816406l-42.257813 28.902344c-1.398437.964844-2.695312 2.0625-3.878906 3.277344-.859375.929687-1.644531 1.921875-2.347656 2.96875-.144531.199218-.683594.855468-.855469 1.058594-5.472656 8.675781-5.324219 19.765624.386719 28.289062l46.71875 68.265625c31.394531 2.996094 51.90625 7.953125 62.652344 15.113281 23.890625 15.921875 14.769531 51.457032 11.785156 63.148438-1.039062 4.03125-2.722656 7.871094-4.984375 11.363281zm0 0"/></svg>