<?xml version="1.0"?>
<svg width="512" height="512.00053" xmlns="http://www.w3.org/2000/svg" xmlns:svg="http://www.w3.org/2000/svg">
 <g class="layer">
  <title>Layer 1</title>
  <path d="m429.2,421.15l-70.74,-103.42c7.9,-0.76 14.99,-5.15 19.18,-11.89l36.26,-58.57c14.76,-23.84 7.6,-55.11 -16.06,-70.15l-116.27,-73.94l0,-0.78s17.07,-8.53 17.07,-42.67s-26.67,-51.19 -76.8,-51.19c-50.13,0 -76.8,17.06 -76.8,51.19s17.07,42.67 17.07,42.67l0,0.78l-89.46,56.88c-9.53,-23.52 -17.6,-43.57 -22.94,-56.95c-3.08,-7.77 -11.76,-11.71 -19.64,-8.91c-7.87,2.79 -12.12,11.32 -9.62,19.29l20.61,66.97c1.23,-0.95 2.5,-1.87 3.84,-2.72c-23.02,14.67 -29.83,45.22 -15.2,68.27l8.85,13.9c4.16,6.49 10.83,10.97 18.41,12.36c4.73,13.11 12.12,33.13 21.08,55.96l-63.56,92.92c-5.11,7.47 -7.05,16.67 -5.37,25.57c1.66,8.9 6.8,16.77 14.27,21.88l42.3,28.89c15.56,10.64 36.79,6.66 47.44,-8.9l22.67,-33.15c15.92,28.29 31.35,48.02 43.39,48.02l140.57,0c6.93,0 13.65,-2.32 19.1,-6.59c11.62,8.47 27.31,8.72 39.2,0.62l42.27,-28.9c15.55,-10.65 19.52,-31.88 8.88,-47.44zm-139.72,-160.65l14.89,-55.84c1.4,-5.25 5.22,-9.52 10.29,-11.5c5.06,-1.98 10.77,-1.42 15.36,1.5l26.84,17.07c7.48,4.75 9.76,14.63 5.12,22.18l-27.82,44.96c-0.38,0.61 -0.61,1.26 -0.93,1.88l-4.96,-7.25c-8.58,-12.48 -24.38,-17.8 -38.76,-13.02c-1.34,0.44 -2.65,0.97 -3.95,1.54c-1.65,0.72 -3.23,1.58 -4.74,2.55c2.68,-1.75 5.59,-3.12 8.66,-4.07zm51.83,166.17c-1.68,-1.09 -3.44,-2.04 -5.27,-2.85c1.83,0.81 3.59,1.76 5.27,2.85zm-7.43,-3.71c-1.4,-0.57 -2.81,-1.12 -4.37,-1.64c1.56,0.52 2.97,1.08 4.37,1.64zm15.48,58.18c-0.38,1.45 -0.88,2.88 -1.49,4.26c0.6,-1.38 1.1,-2.81 1.49,-4.26zm-3.52,7.93c-0.13,0.22 -0.22,0.45 -0.37,0.66c0.15,-0.21 0.24,-0.44 0.37,-0.66zm-19.33,-68.66c-1.5,-0.44 -3.02,-0.85 -4.63,-1.28c1.61,0.4 3.13,0.84 4.63,1.28zm-8.24,-2.14c-1.61,-0.36 -3.26,-0.72 -4.96,-1.05c1.71,0.33 3.35,0.69 4.96,1.05zm-9.05,-1.84c-1.7,-0.31 -3.47,-0.59 -5.26,-0.86c1.79,0.3 3.55,0.58 5.26,0.86zm-9.72,-1.54c-1.8,-0.25 -3.65,-0.48 -5.51,-0.71c1.86,0.27 3.71,0.54 5.51,0.75l0,-0.04zm-10.24,-1.28c-1.87,-0.2 -3.78,-0.38 -5.68,-0.57c1.87,0.22 3.78,0.4 5.67,0.6l0.01,-0.03zm-202.78,-165.06c-0.32,6.63 -3.21,12.88 -8.06,17.43c4.85,-4.55 7.74,-10.8 8.06,-17.43zm148.76,-173.03l-0.95,0.13l0.95,-0.15l0,0.02zm-20.41,102.28c-0.77,-0.26 -1.59,-0.61 -2.4,-0.95c0.81,0.34 1.62,0.64 2.4,0.95zm-4.37,-1.78c-0.92,-0.43 -1.87,-0.94 -2.83,-1.45c0.96,0.51 1.91,1.02 2.83,1.45zm-4.71,-2.45c-1.25,-0.72 -2.55,-1.53 -3.81,-2.37c1.28,0.84 2.56,1.65 3.81,2.37zm35.97,-2.36c-1.27,0.86 -2.56,1.65 -3.79,2.36c1.24,-0.72 2.52,-1.52 3.79,-2.36zm-5.67,3.36c-0.96,0.51 -1.91,1.02 -2.83,1.45c0.92,-0.43 1.87,-0.94 2.83,-1.45zm-4.8,2.28c-0.85,0.34 -1.62,0.69 -2.39,0.95c0.77,-0.31 1.58,-0.61 2.37,-0.95l0.02,0zm16.53,-9.94c4.27,-3.31 8.29,-6.94 12.02,-10.84c-5.16,5.43 -10.88,10.29 -17.07,14.5c1.68,-1.13 3.36,-2.34 5.05,-3.66zm33.79,-55.98c-0.02,2.48 -0.25,4.95 -0.69,7.39c0.44,-2.44 0.67,-4.91 0.69,-7.39zm-1.18,9.61c-0.38,1.76 -0.86,3.51 -1.42,5.23c0.57,-1.72 1.04,-3.47 1.42,-5.23zm-2.21,7.5c-0.7,1.86 -1.5,3.7 -2.38,5.51c0.88,-1.81 1.67,-3.65 2.36,-5.51l0.02,0zm-3.12,7.07c-2.54,4.85 -5.54,9.46 -8.97,13.74c3.43,-4.28 6.43,-8.89 8.97,-13.74zm-9.7,14.65c-1.54,1.9 -3.14,3.74 -4.79,5.51c1.64,-1.77 3.24,-3.61 4.79,-5.51zm-56.91,-74.24l0.94,0.15l-0.94,-0.15zm6.09,0.86l1.11,0.11l-1.11,-0.11zm-18.64,90.53c1.71,1.32 3.39,2.54 5.04,3.65c-6.19,-4.21 -11.91,-9.07 -17.06,-14.5c3.73,3.91 7.75,7.54 12.02,10.85zm-32.61,-46.37c0.39,1.76 0.86,3.51 1.42,5.23c-0.56,-1.72 -1.03,-3.47 -1.42,-5.23zm2.21,7.5c0.7,1.86 1.5,3.7 2.38,5.51c-0.88,-1.81 -1.67,-3.65 -2.36,-5.51l-0.02,0zm3.12,7.07c2.54,4.85 5.54,9.46 8.97,13.74c-3.43,-4.28 -6.43,-8.89 -8.97,-13.74zm9.7,14.65c1.54,1.9 3.14,3.74 4.8,5.51c-1.65,-1.77 -3.24,-3.61 -4.8,-5.51zm31.98,148.12c-1.57,-1.62 -3.3,-3.08 -5.17,-4.35c1.87,1.27 3.61,2.73 5.18,4.35l-0.01,0zm4.04,5.05c-0.25,-0.37 -0.59,-0.7 -0.85,-1.06c0.28,0.36 0.62,0.69 0.87,1.06l-0.02,0zm4.2,-124.1c-0.38,-0.07 -0.81,-0.21 -1.21,-0.31c0.42,0.1 0.84,0.24 1.22,0.31l-0.01,0zm7.78,-0.31c-0.4,0.1 -0.85,0.24 -1.21,0.31c0.4,-0.07 0.83,-0.21 1.23,-0.31l-0.02,0zm2.71,124.95c-1.04,1.63 -1.94,3.34 -2.68,5.12c0.75,-1.78 1.65,-3.49 2.69,-5.12l-0.01,0zm9.5,-9.92c-1.86,1.27 -3.59,2.73 -5.16,4.35c-1.17,1.24 -2.23,2.58 -3.19,3.98c-0.27,0.37 -0.61,0.69 -0.86,1.07c2.43,-3.71 5.56,-6.9 9.21,-9.4zm13.26,-222.04l0,-0.05c10.21,-3.17 20.16,-7.09 29.78,-11.73c-9.62,4.66 -19.57,8.6 -29.78,11.78zm-22.65,4.84l-1.11,0.12l1.11,-0.12zm-37.23,-4.89l0,0.05c-10.21,-3.18 -20.18,-7.11 -29.8,-11.78c9.63,4.65 19.59,8.57 29.8,11.73zm-29.1,46.86c-0.44,-2.44 -0.68,-4.91 -0.7,-7.39c0.02,2.48 0.26,4.95 0.7,7.39zm0.08,146.31c-1.42,-0.94 -2.91,-1.76 -4.45,-2.48c1.55,0.69 3.04,1.52 4.45,2.48zm-23.57,-59.97l14.89,55.84c-12.79,-4.18 -26.84,-0.42 -35.84,9.57c-8.78,-20.58 -17.61,-41.67 -25.97,-61.88l21.27,-13.53c4.59,-2.91 10.29,-3.47 15.36,-1.49c5.06,1.97 8.88,6.24 10.29,11.49zm15.11,147c-3.56,-7.68 -7.28,-15.8 -11.09,-24.36c3.81,8.56 7.53,16.73 11.09,24.36zm-12,-26.33c-0.97,-2.17 -1.95,-4.35 -2.93,-6.56c0.99,2.21 1.96,4.4 2.93,6.56zm-4.18,-9.38c-0.86,-1.9 -1.71,-3.8 -2.56,-5.73c0.88,1.91 1.72,3.81 2.52,5.71l0.04,0.02zm-4.07,-9.25l-2.35,-5.35l2.35,5.35zm-4.03,-9.21l-2.27,-5.23l2.27,5.23zm-3.96,-9.14l-2.34,-5.43l2.34,5.43zm-3.98,-9.22l-2.77,-6.52l2.77,6.52zm-38.79,-65.22l3.24,-2.05l-3.24,2.05c-2.54,1.61 -4.34,4.18 -5,7.12c0.65,-2.95 2.45,-5.52 5,-7.14l0,0.02zm21.92,179.89l-0.13,-0.27l0.13,0.27zm-44.43,-121.12l0.61,0c-0.21,0 -0.4,0.01 -0.61,0zm12.55,-2.98c-1.35,0.76 -2.78,1.38 -4.26,1.85c1.48,-0.48 2.91,-1.1 4.26,-1.85c1.58,-0.89 3.06,-1.93 4.42,-3.13c-1.36,1.2 -2.84,2.25 -4.42,3.13zm-8.48,2.79c0.58,-0.09 1.15,-0.22 1.71,-0.35c-0.56,0.12 -1.12,0.27 -1.71,0.35zm19.35,71.56l-0.06,-0.13l0.06,0.13zm43.73,97.21l0,0.05l0,-0.05zm33.96,-73.61c0.86,1.79 1.71,3.53 2.56,5.24c-0.83,-1.69 -1.69,-3.45 -2.56,-5.24zm-6.96,-14.63c0.95,2.01 1.88,4 2.8,5.97l-2.8,-5.97zm3.65,7.72c0.86,1.82 1.71,3.62 2.56,5.36c-0.84,-1.75 -1.7,-3.54 -2.57,-5.36l0.01,0zm9.54,19.46c3.05,5.97 5.86,11.2 8.36,15.51l37.44,-54.73c5.26,-7.72 7.11,-17.26 5.12,-26.38l2.67,1.13l2.64,-1.13c-1.98,9.12 -0.13,18.66 5.13,26.38l48.98,71.61c-34.04,-2.99 -71.79,-2.99 -90.88,-2.99c-3.17,0 -10.17,-11.21 -19.46,-29.4zm-3.02,-6.02c0.91,1.82 1.79,3.58 2.65,5.29c-0.86,-1.71 -1.74,-3.47 -2.65,-5.29zm0,0" fill="#c9ced1" id="svg_1"/>
  <path d="m82.49,233.64c3.78,5.94 4.94,13.17 3.23,19.99c-1.71,6.83 -6.15,12.65 -12.27,16.11c-6.88,3.76 -15.13,4.08 -22.27,0.85c0.61,-0.25 1.21,-0.53 1.78,-0.85c6.1,-3.49 10.52,-9.31 12.22,-16.12c1.71,-6.82 0.57,-14.03 -3.17,-19.98l-2.64,-4.09c-1.61,-2.54 -2.14,-5.61 -1.49,-8.53c0.66,-2.93 2.45,-5.48 4.98,-7.09l30.3,-19.29c5.96,-3.79 13.64,-3.48 19.29,0.77l-29.02,18.52c-2.55,1.59 -4.36,4.14 -5.02,7.08c-0.65,2.93 -0.11,6.01 1.52,8.54l2.56,4.09zm0,0" fill="#c52828" id="svg_2"/>
  <path d="m413.93,247.3l-36.27,58.54c-4.2,6.73 -11.3,11.12 -19.2,11.86c-4.42,0.53 -8.91,-0.15 -12.97,-1.97c4.8,-2.01 8.86,-5.47 11.6,-9.89l36.27,-58.54c14.75,-23.84 7.6,-55.1 -16.04,-70.15l-96.09,-61.1c0.24,-1.69 0.36,-3.41 0.34,-5.12l0,-7.76l116.31,73.98c23.65,15.05 30.8,46.31 16.05,70.15zm0,0" fill="#c52828" id="svg_3"/>
  <path d="m393.36,247.3l-36.27,58.54c-2.74,4.42 -6.8,7.88 -11.6,9.89c-1.06,-0.47 -2.08,-1.01 -3.07,-1.62c-11.29,-7.02 -15.31,-21.54 -9.22,-33.36c0.28,-0.64 0.59,-1.27 0.94,-1.88l27.82,-44.89c4.7,-7.57 2.42,-17.51 -5.12,-22.27l-26.8,-17.07c-5.99,-3.79 -13.7,-3.48 -19.37,0.77c-3.1,2.26 -5.33,5.51 -6.31,9.22l-14.85,55.89c-3.1,0.91 -6.03,2.29 -8.71,4.1l-42.23,28.93c-7.25,4.93 -12.3,12.49 -14.09,21.07l-2.64,1.11l-2.64,-1.11c-1.22,-5.64 -3.83,-10.9 -7.6,-15.27c-1.89,-2.21 -4.07,-4.17 -6.48,-5.8l-42.25,-28.93c-2.67,-1.81 -5.6,-3.19 -8.7,-4.1l-14.85,-55.89c-1.43,-5.24 -5.26,-9.5 -10.32,-11.47c-5.07,-1.96 -10.77,-1.41 -15.36,1.48l-1.19,0.77c-5.65,-4.25 -13.33,-4.56 -19.29,-0.77l-30.3,19.29c-2.53,1.61 -4.32,4.16 -4.98,7.09c-0.65,2.92 -0.12,5.99 1.49,8.53l2.64,4.09c3.74,5.95 4.88,13.16 3.17,19.98c-1.7,6.81 -6.12,12.63 -12.22,16.12c-0.57,0.32 -1.17,0.6 -1.78,0.85c-5.2,-2.19 -9.61,-5.91 -12.63,-10.66l-8.88,-13.91c-7.05,-11.07 -9.4,-24.48 -6.55,-37.29c2.84,-12.8 10.67,-23.95 21.74,-30.98l97.02,-61.7l20.23,-12.88l0,7.76c0,28.5 29.78,57.01 49.49,65.62c3.21,1.55 6.69,2.45 10.24,2.65c16.21,0 55.55,-30.81 59.39,-63.15l96.09,61.1c23.64,15.05 30.79,46.31 16.04,70.15zm0,0" fill="#3f7f00" id="svg_4"/>
  <path d="m281.23,116.05c-3.84,32.34 -43.18,63.15 -59.39,63.15c-3.55,-0.2 -7.03,-1.1 -10.24,-2.65c19.71,-8.7 49.41,-37.12 49.41,-65.62l0,-7.76l20.22,12.88zm0,0" fill="#c52828" id="svg_5"/>
  <path d="m281.57,59.73l0,51.2c0,21.51 -16.98,43.01 -33.79,55.98c-5.83,4.75 -12.4,8.5 -19.45,11.09c-4.18,1.6 -8.8,1.6 -12.97,0c-0.69,-0.25 -1.37,-0.42 -2.05,-0.68c-6.24,-2.68 -12.1,-6.18 -17.41,-10.41c-16.81,-12.97 -33.79,-34.47 -33.79,-55.98l0,-51.2c9.62,4.66 19.57,8.6 29.78,11.78c5.42,1.7 10.95,3.04 16.56,4.01c1.62,0.26 3.24,0.51 4.86,0.68c2.82,0.41 5.67,0.61 8.53,0.6c4.5,-0.06 8.98,-0.49 13.4,-1.28c5.6,-0.97 11.13,-2.31 16.55,-4.01c4.53,-1.45 8.88,-2.99 12.72,-4.44c10.07,-3.84 17.06,-7.34 17.06,-7.34zm0,0" fill="#37474f" id="svg_6"/>
  <path d="m264.51,59.73l0,51.2c0,21.51 -16.98,43.01 -33.8,55.98c-5.31,4.23 -11.16,7.73 -17.4,10.41c-6.24,-2.68 -12.1,-6.18 -17.41,-10.41c-16.81,-12.97 -33.79,-34.47 -33.79,-55.98l0,-43.86c3.84,1.45 8.19,2.99 12.71,4.44c5.43,1.7 10.96,3.04 16.56,4.01c4.42,0.79 8.9,1.22 13.39,1.28c2.86,0.01 5.71,-0.19 8.54,-0.6c1.62,-0.17 3.24,-0.42 4.86,-0.68c5.6,-0.97 11.13,-2.31 16.56,-4.01c10.2,-3.18 20.16,-7.12 29.78,-11.78zm0,0" fill="#607d8b" id="svg_7"/>
  <path d="m44.89,177.71l27.76,-17.65c-9.53,-23.52 -17.6,-43.57 -22.94,-56.95c-1.74,-4.35 -5.35,-7.68 -9.82,-9.07c-4.48,-1.38 -9.33,-0.67 -13.22,1.93c-5.72,3.82 -8.25,10.95 -6.22,17.52l20.61,66.97c1.22,-0.98 2.49,-1.89 3.83,-2.75zm0,0" fill="#ffb301" id="svg_8"/>
  <path d="m349.59,480.6c-3.61,13.52 -15.88,22.91 -29.87,22.86l-140.54,0c-36.02,0 -102.32,-176.12 -122.2,-231.16c5.62,1.11 11.45,0.2 16.47,-2.56c9.61,-5.42 14.64,-16.41 12.46,-27.22c-0.49,-3.17 -1.66,-6.2 -3.42,-8.88l-0.94,-1.53l-1.62,-2.56c-1.64,-2.53 -2.19,-5.61 -1.53,-8.55c0.65,-2.93 2.47,-5.48 5.03,-7.07l8.96,-5.72c37.97,91.74 85.42,201.39 95.32,201.39c34.13,0 128,0 153.6,17.07c16.98,11.35 12.63,36.95 8.28,53.93zm0,0" fill="#ffb301" id="svg_9"/>
  <path d="m79.93,229.55c-1.07,-1.66 -1.69,-3.58 -1.79,-5.55c1.2,2.64 2.31,5.38 3.41,8.11l-1.62,-2.56zm0,0" fill="#f57c00" id="svg_10"/>
  <path d="m328.85,480.6c-3.59,13.49 -15.82,22.88 -29.78,22.86l-119.89,0c-36.02,0 -102.32,-176.12 -122.2,-231.16c5.62,1.11 11.45,0.2 16.47,-2.56c9.61,-5.42 14.64,-16.41 12.46,-27.22c34.81,82.69 72.36,167.08 81.06,167.08c34.14,0 128,0 153.6,17.07c16.98,11.35 12.63,36.95 8.28,53.93zm0,0" fill="#fec108" id="svg_11"/>
  <path d="m214.07,340.99l-37.46,54.7c-3.66,-6.4 -8.1,-14.68 -12.88,-24.58c-12.8,-26.11 -29.02,-62.72 -45.4,-101.03c6.3,-7.08 15.28,-11.19 24.75,-11.35c7.06,-0.19 13.99,1.87 19.8,5.89l42.24,28.93c7.48,5.1 12.63,12.97 14.31,21.86c1.68,8.9 -0.25,18.1 -5.36,25.58zm0,0" fill="#37474f" id="svg_12" transform="matrix(1 0 0 1 0 0)"/>
  <path d="m135.74,455.43l-22.7,33.19c-10.65,15.55 -31.89,19.52 -47.45,8.87l-3.84,-2.64l-38.39,-26.28c-15.56,-10.66 -19.53,-31.9 -8.88,-47.45l50.77,-74.16l12.8,-18.77c16.48,43.61 35.74,86.11 57.69,127.24zm0,0" fill="#37474f" id="svg_13"/>
  <path d="m190.27,332.46l-26.54,38.65c-12.8,-26.11 -29.02,-62.72 -45.4,-101.03c6.3,-7.08 15.28,-11.19 24.75,-11.35l38.31,26.28c15.56,10.65 19.53,31.9 8.88,47.45zm0,0" fill="#607d8b" id="svg_14"/>
  <path d="m119.44,435.2l-30.12,44.89c-6.24,9.11 -16.52,14.62 -27.57,14.76l-38.39,-26.28c-15.56,-10.66 -19.53,-31.9 -8.88,-47.45l62.29,-96.85c14.17,34.47 26.63,82.52 42.67,110.93zm0,0" fill="#607d8b" id="svg_15"/>
  <path d="m420.33,468.57l-42.24,28.92c-10.54,7.19 -24.21,7.88 -35.42,1.8c-1.34,-0.7 -2.62,-1.5 -3.84,-2.4c5.29,-4.09 9.06,-9.82 10.76,-16.29c4.35,-16.98 8.7,-42.58 -8.28,-53.93c-11.27,-7.51 -35.84,-11.69 -62.72,-14.08l-48.98,-71.6c-5.24,-7.72 -7.09,-17.25 -5.13,-26.37c0.85,-4.17 2.5,-8.14 4.87,-11.69c0.31,-0.35 0.59,-0.72 0.85,-1.11c0.93,-1.4 1.99,-2.71 3.16,-3.92c1.56,-1.65 3.3,-3.11 5.21,-4.35l42.23,-28.93c1.5,-0.97 3.07,-1.83 4.7,-2.56c1.31,-0.59 2.64,-1.1 4.01,-1.54c0.43,-0.17 0.94,-0.25 1.36,-0.42c14.05,-3.99 29.07,1.4 37.38,13.39l4.95,7.26c-6.09,11.82 -2.08,26.34 9.22,33.36c4.78,2.99 10.44,4.25 16.04,3.59l70.74,103.42c10.65,15.55 6.68,36.79 -8.87,47.45zm0,0" fill="#37474f" id="svg_16"/>
  <path d="m332.86,314.96l70.74,103.43c10.65,15.55 6.68,36.79 -8.87,47.45l-42.25,28.84c-2.98,2.08 -6.3,3.64 -9.81,4.61c-1.34,-0.7 -2.62,-1.5 -3.84,-2.4c5.29,-4.09 9.06,-9.82 10.76,-16.29c4.35,-16.98 8.7,-42.58 -8.28,-53.93c-11.27,-7.51 -35.84,-11.69 -62.72,-14.08l-48.98,-71.6c-5.24,-7.72 -7.09,-17.25 -5.13,-26.36c0.85,-4.18 2.5,-8.15 4.87,-11.7c0.31,-0.35 0.59,-0.72 0.85,-1.11c0.93,-1.4 1.99,-2.71 3.16,-3.92c1.56,-1.65 3.3,-3.11 5.21,-4.35l42.23,-28.93c1.5,-0.97 3.07,-1.83 4.7,-2.56c1.31,-0.59 2.64,-1.1 4.01,-1.54c0.43,-0.17 0.94,-0.25 1.36,-0.42c4.73,2.55 8.77,6.21 11.78,10.66l4.95,7.26l25.26,36.94zm0,0" fill="#607d8b" id="svg_17"/>
  <path d="m298.64,59.73c0,34.14 -17.07,42.67 -17.07,42.67l0,-42.67s-3.32,1.63 -8.61,3.93c-4.44,1.88 -10.41,4.27 -16.99,6.48c-10.98,3.92 -22.48,6.16 -34.13,6.66c-4.29,-0.03 -8.57,-0.43 -12.8,-1.19c-16.25,-3.29 -32.02,-8.62 -46.93,-15.88l0,42.67s-15.7,-7.85 -16.99,-38.74c-0.08,-1.28 -0.08,-2.56 -0.08,-3.93c0,-31.14 22.1,-48.04 64,-50.77c4.1,-0.26 8.36,-0.42 12.8,-0.42c50.18,0 76.8,17.06 76.8,51.19zm0,0" fill="#9e9e9e" id="svg_18"/>
  <path d="m273.04,59.73c0,1.37 0,2.65 -0.08,3.93c-4.44,1.88 -10.41,4.27 -16.99,6.48l0,-10.41c-14.91,7.26 -30.68,12.59 -46.93,15.88c-4.22,0.76 -8.5,1.16 -12.8,1.19c-11.65,-0.5 -23.15,-2.74 -34.13,-6.66c-6.57,-2.21 -12.55,-4.6 -16.98,-6.48c-0.09,-1.28 -0.09,-2.56 -0.09,-3.93c0,-31.14 22.1,-48.04 64,-50.77c41.9,2.73 64,19.63 64,50.77zm0,0" fill="#cfd8dc" id="svg_19"/>
  <path d="m221.84,187.73c-21.33,0 -68.27,-37.12 -68.27,-76.8l0,-51.2c0,-2.95 1.53,-5.7 4.05,-7.26c2.51,-1.55 5.66,-1.7 8.3,-0.37c0.32,0.17 32.67,16.17 55.92,16.17s55.6,-16 55.92,-16.17c2.65,-1.33 5.79,-1.18 8.3,0.37c2.52,1.56 4.05,4.31 4.05,7.26l0,51.2c0,39.68 -46.93,76.8 -68.27,76.8zm-51.2,-114.85l0,38.05c0,30.09 40.11,59.74 51.2,59.74s51.2,-29.65 51.2,-59.74l0,-38.05c-16.19,7.16 -33.53,11.38 -51.2,12.45c-17.67,-1.07 -35.01,-5.29 -51.2,-12.45zm0,0" id="svg_20"/>
  <path d="m281.57,110.93c-4.71,0 -8.53,-3.82 -8.53,-8.53l0,-29.52c-16.19,7.16 -33.53,11.38 -51.2,12.45c-17.67,-1.07 -35.01,-5.29 -51.2,-12.45l0,29.52c0,2.96 -1.53,5.71 -4.04,7.26c-2.52,1.56 -5.66,1.7 -8.31,0.38c-2.23,-1.12 -21.78,-12.01 -21.78,-50.31c0,-27.24 14.8,-59.73 85.33,-59.73s85.34,32.49 85.34,59.73c0,38.3 -19.55,49.19 -21.79,50.35c-1.19,0.58 -2.5,0.87 -3.82,0.85zm-119.46,-59.73c1.32,0 2.63,0.3 3.81,0.9c0.32,0.17 32.67,16.17 55.92,16.17s55.6,-16 55.92,-16.17c2.65,-1.33 5.79,-1.18 8.3,0.37c2.52,1.56 4.05,4.31 4.05,7.26c0,-10.55 0,-42.66 -68.27,-42.66c-68.27,0 -68.27,32.11 -68.27,42.66c0,-4.71 3.82,-8.53 8.54,-8.53zm0,0" id="svg_21"/>
  <path d="m221.84,128c-22.52,-0.79 -44.33,-8.03 -62.85,-20.86c-2.6,-1.66 -4.11,-4.59 -3.94,-7.66c0.16,-3.08 1.97,-5.83 4.74,-7.19c2.76,-1.37 6.04,-1.14 8.59,0.6c15.74,10.99 34.28,17.25 53.46,18.04c19.18,-0.79 37.73,-7.05 53.47,-18.04c2.55,-1.74 5.83,-1.97 8.6,-0.6c2.76,1.36 4.57,4.11 4.73,7.19c0.17,3.07 -1.34,6 -3.94,7.66c-18.52,12.83 -40.34,20.07 -62.86,20.86zm0,0" id="svg_22"/>
  <path d="m207.53,183.11c-3.53,0 -6.7,-2.18 -7.96,-5.48c-12.53,-33.83 -15.23,-70.52 -7.76,-105.81c0.65,-3.02 2.87,-5.44 5.82,-6.36c2.94,-0.91 6.14,-0.16 8.38,1.95c2.24,2.12 3.17,5.27 2.42,8.26c-6.6,31.99 -4.15,65.18 7.07,95.85c1.69,4.4 -0.51,9.34 -4.91,11.03c-0.97,0.37 -2.01,0.56 -3.06,0.56zm0,0" id="svg_23"/>
  <path d="m236.15,183.11c-1.04,0 -2.08,-0.19 -3.06,-0.56c-4.4,-1.69 -6.6,-6.63 -4.91,-11.03c11.22,-30.67 13.67,-63.86 7.07,-95.84c-0.75,-2.99 0.18,-6.14 2.42,-8.26c2.24,-2.12 5.44,-2.86 8.38,-1.95c2.95,0.92 5.17,3.34 5.82,6.35c7.47,35.3 4.78,71.99 -7.76,105.82c-1.26,3.29 -4.43,5.47 -7.96,5.47zm0,0" id="svg_24"/>
  <path d="m221.84,187.73c-21.33,0 -68.27,-37.12 -68.27,-76.8l0,-51.2c0,-2.95 1.53,-5.7 4.05,-7.26c2.51,-1.55 5.66,-1.7 8.3,-0.37c0.32,0.17 32.67,16.17 55.92,16.17s55.6,-16 55.92,-16.17c2.65,-1.33 5.79,-1.18 8.3,0.37c2.52,1.56 4.05,4.31 4.05,7.26l0,51.2c0,39.68 -46.93,76.8 -68.27,76.8zm-51.2,-114.85l0,38.05c0,30.09 40.11,59.74 51.2,59.74s51.2,-29.65 51.2,-59.74l0,-38.05c-16.19,7.16 -33.53,11.38 -51.2,12.45c-17.67,-1.07 -35.01,-5.29 -51.2,-12.45zm0,0" id="svg_25"/>
  <path d="m355.69,326.41c-6.28,0.02 -12.44,-1.71 -17.77,-5.02c-15.15,-9.29 -20.53,-28.73 -12.32,-44.49c0.36,-0.86 0.78,-1.69 1.25,-2.49l27.83,-44.96c2.21,-3.57 1.14,-8.26 -2.4,-10.52l-26.84,-17.07c-2.3,-1.45 -5.14,-1.72 -7.67,-0.73c-2.53,0.99 -4.43,3.12 -5.13,5.75l-14.89,55.83c-0.75,2.79 -2.85,5.02 -5.59,5.92c-2.31,0.7 -4.51,1.73 -6.52,3.05l-42.26,28.9c-5.42,3.71 -9.18,9.37 -10.51,15.8c-0.58,2.72 -2.44,4.99 -5,6.08l-2.64,1.13c-2.15,0.91 -4.58,0.91 -6.73,0l-2.64,-1.13c-2.56,-1.09 -4.42,-3.36 -4.99,-6.08c-1.33,-6.43 -5.1,-12.09 -10.51,-15.79l-42.26,-28.91c-2.02,-1.32 -4.22,-2.35 -6.52,-3.05c-2.75,-0.9 -4.85,-3.13 -5.59,-5.92l-14.89,-55.84c-0.71,-2.62 -2.61,-4.75 -5.14,-5.74c-2.52,-0.99 -5.37,-0.72 -7.66,0.73l-30.24,19.24c-1.31,0.85 -1.69,2.6 -0.85,3.92l2.56,4.06c4.99,7.92 6.53,17.53 4.27,26.61c-2.26,9.11 -8.21,16.88 -16.41,21.44c-16.35,8.78 -36.71,3.22 -46.33,-12.65l-8.8,-13.89c-17.18,-27.04 -9.2,-62.88 17.83,-80.08l117.21,-74.53c2.62,-1.66 5.95,-1.77 8.68,-0.27c2.73,1.5 4.42,4.36 4.42,7.47l0,7.75c0,30.09 40.11,59.74 51.2,59.74s51.2,-29.65 51.2,-59.74l0,-7.75c0,-3.11 1.7,-5.97 4.42,-7.47c2.73,-1.5 6.06,-1.39 8.69,0.27l116.27,73.95c27.52,17.6 35.87,53.99 18.78,81.83l-36.26,58.57c-5.57,9.02 -15.05,14.9 -25.6,15.89c-1.22,0.13 -2.43,0.19 -3.65,0.19zm-34.78,-142.95c4.84,0.02 9.57,1.41 13.65,4.04l26.84,17.06c11.4,7.3 14.85,22.38 7.77,33.91l-27.83,44.95l-0.55,1.24c-4.09,8.1 -1.09,17.98 6.81,22.45c7.9,4.48 17.91,1.95 22.76,-5.72l36.25,-58.57c12.25,-19.88 6.32,-45.9 -13.33,-58.5l-103.71,-65.94c-5.27,36.75 -47.75,69.35 -67.73,69.35s-62.47,-32.6 -67.73,-69.35l-104.64,66.54c-19.07,12.14 -24.7,37.42 -12.58,56.51l8.83,13.89c4.83,8.11 15.08,11.14 23.54,6.95c4.09,-2.29 7.05,-6.17 8.2,-10.72c1.14,-4.55 0.36,-9.37 -2.16,-13.32l-2.55,-4.06c-5.88,-9.28 -3.14,-21.56 6.11,-27.47l30.25,-19.24c6.88,-4.39 15.44,-5.23 23.05,-2.26c7.61,2.96 13.34,9.37 15.44,17.26l13.76,51.62c2.24,0.96 4.38,2.13 6.39,3.51l42.25,28.9c4.75,3.24 8.78,7.43 11.84,12.3c3.08,-4.88 7.12,-9.06 11.88,-12.31l42.26,-28.89c2,-1.38 4.14,-2.55 6.38,-3.51l13.76,-51.62c2.06,-7.91 7.81,-14.35 15.44,-17.29c2.98,-1.14 6.15,-1.72 9.35,-1.71zm0,0" id="svg_26" transform="matrix(1 0 0 1 0 0)"/>
  <path d="m41.05,188.98c-0.86,0 -1.73,-0.14 -2.56,-0.39c-2.68,-0.84 -4.78,-2.95 -5.6,-5.64l-20.6,-66.97c-2.62,-8.54 -0.3,-17.83 6.02,-24.13c6.33,-6.31 15.62,-8.59 24.15,-5.94c6.92,2.14 12.5,7.3 15.17,14.03c5.34,13.37 13.37,33.39 22.93,56.9c1.56,3.82 0.16,8.21 -3.32,10.42l-27.77,17.66c-1.09,0.69 -2.14,1.44 -3.15,2.23c-1.5,1.18 -3.36,1.83 -5.27,1.83zm-5.78,-87.1c-2.21,0.02 -4.29,1.08 -5.59,2.86c-1.32,1.78 -1.71,4.08 -1.07,6.19l17.24,56.07l16.21,-10.32c-8.4,-20.7 -15.44,-38.28 -20.29,-50.41c-0.76,-1.96 -2.38,-3.46 -4.39,-4.07c-0.68,-0.21 -1.4,-0.32 -2.11,-0.32zm0,0" id="svg_27"/>
  <path d="m319.76,512l-140.58,0c-29.73,0 -73.55,-79.68 -130.26,-236.84c-1.03,-2.87 -0.46,-6.08 1.52,-8.41c1.96,-2.34 5.04,-3.45 8.05,-2.87c3.67,0.74 7.48,0.17 10.78,-1.61c4.09,-2.29 7.05,-6.17 8.2,-10.72c1.14,-4.55 0.36,-9.37 -2.15,-13.32l-2.57,-4.06c-5.87,-9.28 -3.14,-21.56 6.13,-27.47l8.96,-5.72c2.13,-1.35 4.75,-1.69 7.16,-0.93c2.4,0.76 4.35,2.55 5.31,4.88c65.72,158.96 84.76,190.16 89.96,196.14c60.27,0.06 131.55,2.32 155.82,18.5c23.89,15.92 14.77,51.45 11.78,63.14c-4.52,17.33 -20.21,29.38 -38.11,29.29zm-250.75,-231.54c53.92,147.27 94.74,214.47 110.17,214.47l140.58,0c10.1,0.08 18.97,-6.7 21.55,-16.47c6.12,-23.89 4.57,-38.5 -4.72,-44.69c-15.57,-10.38 -65.66,-15.64 -148.88,-15.64c-8.17,0 -17.42,0 -99.31,-197.29l-0.4,0.25c-1.31,0.85 -1.69,2.61 -0.85,3.93l2.56,4.05c4.99,7.92 6.54,17.53 4.27,26.61c-2.25,9.11 -8.17,16.88 -16.35,21.46c-2.7,1.52 -5.6,2.64 -8.62,3.32zm0,0" id="svg_28"/>
  <path d="m176.61,404.25l-0.31,0c-2.93,-0.11 -5.6,-1.73 -7.07,-4.27c-11.9,-20.53 -31.65,-63.14 -58.71,-126.57c-1.31,-3.05 -0.72,-6.59 1.5,-9.05c14.25,-15.89 38.03,-18.8 55.69,-6.83l42.26,28.9c19.44,13.32 24.4,39.86 11.09,59.3l-37.44,54.75c-1.57,2.33 -4.19,3.75 -7.01,3.77zm-48.04,-131.98c21.11,49.31 37.48,85.22 48.86,107.12l29.58,-43.23c7.96,-11.68 4.97,-27.59 -6.68,-35.59l-42.26,-28.9c-8.97,-6.06 -20.78,-5.82 -29.5,0.6zm0,0" id="svg_29"/>
  <path d="m84.8,512c-8.56,0 -16.93,-2.61 -23.98,-7.46l-42.26,-28.9c-19.44,-13.32 -24.4,-39.87 -11.1,-59.31l63.53,-92.92c1.78,-2.61 4.87,-4.01 8.01,-3.65c3.13,0.35 5.82,2.42 6.97,5.36c16.41,43.2 35.51,85.34 57.18,126.16c1.59,2.83 1.44,6.33 -0.4,9.01l-22.67,33.14c-6.35,9.36 -16.19,15.78 -27.31,17.85c-2.63,0.49 -5.29,0.73 -7.97,0.72zm-8.78,-165.73l-54.51,79.7c-3.83,5.6 -5.28,12.5 -4.03,19.18c1.25,6.67 5.11,12.58 10.72,16.41l42.25,28.9c5.6,3.84 12.5,5.29 19.18,4.03c6.67,-1.25 12.57,-5.1 16.41,-10.71l19.68,-28.79c-18.55,-35.3 -35.14,-71.59 -49.7,-108.72zm0,0" id="svg_30"/>
  <path d="m358.95,511.91c-9.02,0.01 -17.81,-2.83 -25.11,-8.12c-2.18,-1.57 -3.49,-4.08 -3.54,-6.76c-0.05,-2.69 1.16,-5.24 3.29,-6.89c3.78,-2.94 6.48,-7.05 7.68,-11.69c6.11,-23.9 4.57,-38.5 -4.72,-44.7c-5.98,-3.96 -20.94,-9.39 -58.71,-12.67c-2.54,-0.23 -4.85,-1.58 -6.29,-3.69l-48.98,-71.62c-6.62,-9.63 -8.95,-21.56 -6.44,-32.97c1.09,-5.17 3.13,-10.09 6.02,-14.51c0.19,-0.31 0.85,-1.18 1.1,-1.44c1.2,-1.72 2.53,-3.36 3.97,-4.89c1.97,-2.03 4.14,-3.86 6.48,-5.45l42.25,-28.9c1.87,-1.25 3.84,-2.34 5.89,-3.27c1.77,-0.78 3.35,-1.39 4.95,-1.93c17.98,-5.86 37.69,0.77 48.47,16.32l4.95,7.25c1.77,2.58 1.98,5.92 0.56,8.7c-2.91,5.52 -2.52,12.2 1,17.35c3.52,5.15 9.6,7.94 15.8,7.24c3.11,-0.31 6.14,1.09 7.92,3.66l70.73,103.43c13.31,19.44 8.34,45.98 -11.09,59.3l-42.27,28.88c-7.04,4.82 -15.38,7.39 -23.91,7.37zm-6.12,-17.83c7.01,1.74 14.43,0.41 20.4,-3.65l42.26,-28.91c5.6,-3.83 9.46,-9.73 10.71,-16.4c1.25,-6.67 -0.2,-13.57 -4.03,-19.18l-68.13,-99.56c-5.71,-0.26 -11.26,-1.98 -16.12,-4.99c-13.44,-8.23 -19.4,-24.66 -14.37,-39.6l-2.35,-3.41c-6.41,-9.4 -18.29,-13.38 -29.07,-9.74c-1.07,0.36 -2.11,0.77 -3.16,1.24c-1.17,0.51 -2.29,1.12 -3.36,1.81l-42.26,28.9c-1.4,0.97 -2.69,2.07 -3.88,3.28c-0.86,0.93 -1.64,1.92 -2.34,2.97c-0.15,0.2 -0.69,0.86 -0.86,1.06c-5.47,8.67 -5.32,19.76 0.39,28.29l46.72,68.26c31.39,3 51.9,7.96 62.65,15.12c23.89,15.92 14.77,51.45 11.78,63.14c-1.04,4.04 -2.72,7.88 -4.98,11.37zm0,0" id="svg_31"/>
 </g>
</svg>